<svg viewBox="0 0 400 300" xmlns="http://www.w3.org/2000/svg"><path d="m150.8 79.07h99.68v121.25h-99.68z" fill="#093f68"/><path d="m250.49 201.32h-99.69a1 1 0 0 1 -1-1v-121.25a1 1 0 0 1 1-1h99.69a1 1 0 0 1 1 1v121.25a1 1 0 0 1 -1 1zm-98.69-2h97.69v-119.25h-97.69z" fill="#093f68"/><rect fill="#68e1fd" height="33.88" rx="4.26" width="110.81" x="144.68" y="73.49"/><path d="m251.23 108.36h-102.23a5.27 5.27 0 0 1 -5.27-5.26v-25.35a5.27 5.27 0 0 1 5.27-5.26h102.23a5.27 5.27 0 0 1 5.26 5.26v25.35a5.27 5.27 0 0 1 -5.26 5.26zm-102.23-33.87a3.27 3.27 0 0 0 -3.27 3.26v25.35a3.27 3.27 0 0 0 3.27 3.26h102.23a3.26 3.26 0 0 0 3.26-3.26v-25.35a3.26 3.26 0 0 0 -3.26-3.26z" fill="#093f68"/><circle cx="237.5" cy="90.43" fill="#093f68" r="4.74"/><path d="m200.09 91.43h-41.09a1 1 0 0 1 0-2h41.1a1 1 0 0 1 0 2z" fill="#093f68"/><rect fill="#68e1fd" height="33.88" rx="4.26" width="110.81" x="144.68" y="113.2"/><path d="m251.23 148.08h-102.23a5.27 5.27 0 0 1 -5.27-5.26v-25.35a5.28 5.28 0 0 1 5.27-5.27h102.23a5.27 5.27 0 0 1 5.26 5.27v25.35a5.27 5.27 0 0 1 -5.26 5.26zm-102.23-33.88a3.28 3.28 0 0 0 -3.27 3.27v25.35a3.27 3.27 0 0 0 3.27 3.26h102.23a3.26 3.26 0 0 0 3.26-3.26v-25.35a3.27 3.27 0 0 0 -3.26-3.27z" fill="#093f68"/><circle cx="237.5" cy="130.14" fill="#093f68" r="4.74"/><path d="m200.09 131.14h-41.09a1 1 0 0 1 0-2h41.1a1 1 0 1 1 0 2z" fill="#093f68"/><rect fill="#68e1fd" height="33.88" rx="4.26" width="110.81" x="144.68" y="152.92"/><path d="m251.23 187.8h-102.23a5.28 5.28 0 0 1 -5.27-5.27v-25.35a5.27 5.27 0 0 1 5.27-5.26h102.23a5.27 5.27 0 0 1 5.26 5.26v25.35a5.27 5.27 0 0 1 -5.26 5.27zm-102.23-33.88a3.27 3.27 0 0 0 -3.27 3.26v25.35a3.28 3.28 0 0 0 3.27 3.27h102.23a3.27 3.27 0 0 0 3.26-3.27v-25.35a3.26 3.26 0 0 0 -3.26-3.26z" fill="#093f68"/><circle cx="237.5" cy="169.86" fill="#093f68" r="4.74"/><path d="m200.09 170.86h-41.09a1 1 0 0 1 0-2h41.1a1 1 0 1 1 0 2z" fill="#093f68"/><rect fill="#68e1fd" height="33.88" rx="4.26" width="110.81" x="144.68" y="192.64"/><path d="m251.23 227.51h-102.23a5.27 5.27 0 0 1 -5.27-5.26v-25.35a5.27 5.27 0 0 1 5.27-5.26h102.23a5.27 5.27 0 0 1 5.26 5.26v25.35a5.27 5.27 0 0 1 -5.26 5.26zm-102.23-33.87a3.27 3.27 0 0 0 -3.27 3.26v25.35a3.27 3.27 0 0 0 3.27 3.26h102.23a3.26 3.26 0 0 0 3.26-3.26v-25.35a3.26 3.26 0 0 0 -3.26-3.26z" fill="#093f68"/><circle cx="237.5" cy="209.57" fill="#093f68" r="4.74"/><path d="m200.09 210.57h-41.09a1 1 0 0 1 0-2h41.1a1 1 0 0 1 0 2z" fill="#093f68"/><path d="m191.26 184.1a3.13 3.13 0 0 0 -2.42-2.92c-1.17-.25-2.35-.44-3.53-.62a.78.78 0 0 1 -.7-.58c-.35-.94-.75-1.87-1.16-2.79a.62.62 0 0 1 .06-.71c.72-1 1.44-1.95 2.1-3a3.11 3.11 0 0 0 -.27-3.79c-1.08-1.18-2.24-2.3-3.37-3.44a3.32 3.32 0 0 0 -4.52-.41c-.89.62-1.77 1.24-2.64 1.88a.6.6 0 0 1 -.71.07c-1-.44-2-.85-3-1.24a.6.6 0 0 1 -.45-.55q-.26-1.62-.54-3.24a3.25 3.25 0 0 0 -3.11-2.76c-1.66 0-3.33 0-5 0a3.15 3.15 0 0 0 -3 2.47c-.27 1.21-.45 2.44-.66 3.66a.63.63 0 0 1 -.45.55c-1 .38-1.94.8-2.9 1.23a.59.59 0 0 1 -.67-.06c-1-.71-1.92-1.43-2.92-2.08a3.11 3.11 0 0 0 -3.82.24c-1.27 1.16-2.5 2.37-3.67 3.63a3.21 3.21 0 0 0 -.21 4.26c.65.93 1.32 1.85 2 2.79a.62.62 0 0 1 .06.5c-.4 1-.82 2.08-1.26 3.11a.66.66 0 0 1 -.4.33c-1.07.2-2.15.37-3.23.54a3.26 3.26 0 0 0 -2.9 3c-.06 1.74-.05 3.48 0 5.21a3.11 3.11 0 0 0 2.4 2.9c1.24.28 2.49.47 3.74.68a.6.6 0 0 1 .52.43c.39 1 .81 2 1.25 2.93a.54.54 0 0 1 -.06.63c-.66.9-1.31 1.79-1.94 2.71a3.27 3.27 0 0 0 .38 4.38q1.56 1.6 3.16 3.16a3.27 3.27 0 0 0 4.48.34c.91-.64 1.82-1.27 2.71-1.93a.51.51 0 0 1 .59-.05c.93.4 1.85.8 2.79 1.15a.7.7 0 0 1 .52.65c.16 1.07.34 2.13.53 3.19a3.22 3.22 0 0 0 3 2.8c1.75.06 3.51.06 5.25 0a3.13 3.13 0 0 0 2.91-2.44c.26-1.18.44-2.38.64-3.58a.7.7 0 0 1 .49-.62c1-.37 1.95-.78 2.91-1.2a.54.54 0 0 1 .63.07c.89.65 1.8 1.28 2.7 1.93a3.47 3.47 0 0 0 2.18.66 2.76 2.76 0 0 0 1.94-.79c1.15-1.08 2.26-2.2 3.37-3.31a3.33 3.33 0 0 0 .41-4.6c-.62-.88-1.24-1.76-1.88-2.63a.56.56 0 0 1 -.06-.63c.43-1 .84-2 1.22-2.95a.63.63 0 0 1 .56-.45c1.08-.16 2.16-.34 3.24-.53a3.25 3.25 0 0 0 2.83-3.09c-.07-1.67-.08-3.38-.12-5.09zm-26.72 14.12a11.53 11.53 0 1 1 11.55-11.51 11.52 11.52 0 0 1 -11.55 11.51z" fill="#fff" stroke="#093f68" stroke-linecap="round" stroke-linejoin="round" stroke-width="2"/><path d="m219.65 85.77h-77.44a3.15 3.15 0 0 0 -3.16 3.15v17.13a3.16 3.16 0 0 0 3.16 3.16h14.79l10.16 12v-12h52.53a3.17 3.17 0 0 0 3.16-3.16v-17.13a3.16 3.16 0 0 0 -3.2-3.15z" fill="#f56132"/><path d="m167.12 122.22a1 1 0 0 1 -.76-.36l-9.86-11.65h-14.29a4.16 4.16 0 0 1 -4.16-4.16v-17.13a4.15 4.15 0 0 1 4.16-4.15h77.44a4.16 4.16 0 0 1 4.16 4.15v17.13a4.17 4.17 0 0 1 -4.16 4.16h-51.53v11a1 1 0 0 1 -.65.94 1.07 1.07 0 0 1 -.35.07zm-24.91-35.45a2.15 2.15 0 0 0 -2.16 2.15v17.13a2.16 2.16 0 0 0 2.16 2.16h14.79a1 1 0 0 1 .76.35l8.4 9.93v-9.28a1 1 0 0 1 1-1h52.53a2.16 2.16 0 0 0 2.16-2.16v-17.13a2.16 2.16 0 0 0 -2.16-2.15z" fill="#093f68"/><g fill="#fff"><path d="m152.9 100.71.1-5.71-2.1 5.73h-1.37l-2.14-5.73v5.73h-1.84v-8.11h2.78l1.84 5.19 1.83-5.19h2.83v8.09z"/><path d="m156.3 95.8a3.2 3.2 0 0 1 1.17-.72 4 4 0 0 1 1.36-.24 3.9 3.9 0 0 1 1.22.17 1.86 1.86 0 0 1 .81.55 2.49 2.49 0 0 1 .45.94 5.8 5.8 0 0 1 .14 1.34v2.87h-1.71v-.6a1.42 1.42 0 0 1 -.65.55 2.57 2.57 0 0 1 -1 .19 3 3 0 0 1 -.71-.09 2.12 2.12 0 0 1 -.67-.3 1.63 1.63 0 0 1 -.49-.55 1.68 1.68 0 0 1 -.2-.84 1.41 1.41 0 0 1 .34-1 2.18 2.18 0 0 1 .87-.58 4.64 4.64 0 0 1 1.18-.28c.44 0 .86-.06 1.27-.06v-.1a.69.69 0 0 0 -.3-.62 1.3 1.3 0 0 0 -.73-.2 1.88 1.88 0 0 0 -.77.17 2.71 2.71 0 0 0 -.64.41zm3.44 2.43h-.24q-.31 0-.63 0a2.92 2.92 0 0 0 -.56.11 1 1 0 0 0 -.4.23.54.54 0 0 0 -.16.41.45.45 0 0 0 .07.27.58.58 0 0 0 .19.19 1 1 0 0 0 .26.09h.29a1.14 1.14 0 0 0 .87-.31 1.16 1.16 0 0 0 .31-.85z"/><path d="m164.88 93.2a1.11 1.11 0 0 1 -.08.41 1.24 1.24 0 0 1 -.23.32 1 1 0 0 1 -.35.22 1.15 1.15 0 0 1 -.41.08 1.06 1.06 0 0 1 -.77-.3 1 1 0 0 1 -.31-.73 1 1 0 0 1 .08-.39 1 1 0 0 1 .23-.33 1.11 1.11 0 0 1 .34-.22 1 1 0 0 1 .43-.09 1.15 1.15 0 0 1 .41.08 1.23 1.23 0 0 1 .35.22 1.14 1.14 0 0 1 .23.33 1.06 1.06 0 0 1 .08.4zm-2 7.51v-5.71h1.87v5.69z"/><path d="m170 100.71v-3.11a2.15 2.15 0 0 0 0-.45 1.37 1.37 0 0 0 -.13-.39.65.65 0 0 0 -.26-.26.77.77 0 0 0 -.42-.1.92.92 0 0 0 -.44.1.8.8 0 0 0 -.31.27 1 1 0 0 0 -.19.39 1.84 1.84 0 0 0 -.06.47v3.08h-1.89v-5.71h1.82v.79a2.11 2.11 0 0 1 .27-.36 1.72 1.72 0 0 1 .39-.31 2.55 2.55 0 0 1 .48-.2 2.1 2.1 0 0 1 .56-.08 2.22 2.22 0 0 1 1 .2 1.88 1.88 0 0 1 .64.54 2 2 0 0 1 .36.74 3.61 3.61 0 0 1 .11.85v3.52z"/><path d="m175.31 96.41v2.18a1 1 0 0 0 .15.61.69.69 0 0 0 .56.2h.29a.91.91 0 0 0 .26-.06v1.37l-.49.12a4 4 0 0 1 -.6 0 3 3 0 0 1 -1-.14 1.55 1.55 0 0 1 -.62-.42 1.58 1.58 0 0 1 -.34-.64 3 3 0 0 1 -.1-.83v-2.39h-.92v-1.41h.91v-1.5h1.84v1.5h1.34v1.39z"/><path d="m183.17 97.93v.23a1.55 1.55 0 0 1 0 .22h-4.17a.91.91 0 0 0 .14.43 1.12 1.12 0 0 0 .31.34 1.2 1.2 0 0 0 .42.22 1.36 1.36 0 0 0 .49.08 1.6 1.6 0 0 0 .75-.16 1.4 1.4 0 0 0 .5-.43l1.31.82a2.65 2.65 0 0 1 -1.06.9 3.51 3.51 0 0 1 -1.53.32 3.74 3.74 0 0 1 -1.21-.2 3 3 0 0 1 -1-.59 2.68 2.68 0 0 1 -.67-.94 3 3 0 0 1 -.25-1.28 3.15 3.15 0 0 1 .24-1.26 3 3 0 0 1 .65-1 3.13 3.13 0 0 1 1-.61 3.47 3.47 0 0 1 1.22-.21 3.06 3.06 0 0 1 1.15.21 2.44 2.44 0 0 1 .9.61 2.72 2.72 0 0 1 .59 1 3.77 3.77 0 0 1 .22 1.3zm-1.72-.72a1.15 1.15 0 0 0 -.28-.76 1 1 0 0 0 -.84-.32 1.65 1.65 0 0 0 -.51.08 1.47 1.47 0 0 0 -.4.24 1.17 1.17 0 0 0 -.27.35.87.87 0 0 0 -.11.41z"/><path d="m188.08 100.71v-3.11a2.15 2.15 0 0 0 0-.45 1.37 1.37 0 0 0 -.13-.39.65.65 0 0 0 -.26-.26.77.77 0 0 0 -.42-.1.92.92 0 0 0 -.44.1.8.8 0 0 0 -.31.27 1 1 0 0 0 -.19.39 1.84 1.84 0 0 0 -.06.47v3.08h-1.89v-5.71h1.82v.79a2.11 2.11 0 0 1 .27-.36 1.72 1.72 0 0 1 .39-.31 2.55 2.55 0 0 1 .48-.2 2.1 2.1 0 0 1 .56-.08 2.22 2.22 0 0 1 1 .2 1.88 1.88 0 0 1 .64.54 2 2 0 0 1 .36.74 3.61 3.61 0 0 1 .11.85v3.52z"/><path d="m191.3 95.8a3.32 3.32 0 0 1 1.18-.72 4 4 0 0 1 1.36-.24 3.9 3.9 0 0 1 1.22.17 1.86 1.86 0 0 1 .81.55 2.49 2.49 0 0 1 .45.94 5.8 5.8 0 0 1 .14 1.34v2.87h-1.72v-.6a1.4 1.4 0 0 1 -.66.55 2.48 2.48 0 0 1 -1 .19 2.94 2.94 0 0 1 -.71-.09 2 2 0 0 1 -.67-.3 1.66 1.66 0 0 1 -.5-.55 1.68 1.68 0 0 1 -.19-.84 1.41 1.41 0 0 1 .34-1 2.18 2.18 0 0 1 .87-.58 4.54 4.54 0 0 1 1.18-.28c.43 0 .86-.06 1.27-.06v-.1a.69.69 0 0 0 -.3-.62 1.3 1.3 0 0 0 -.73-.2 1.84 1.84 0 0 0 -.77.17 2.71 2.71 0 0 0 -.64.41zm3.44 2.43h-.24-.62a2.92 2.92 0 0 0 -.56.11 1 1 0 0 0 -.4.23.54.54 0 0 0 -.16.41.45.45 0 0 0 .07.27.58.58 0 0 0 .19.19.88.88 0 0 0 .26.09h.29a1.14 1.14 0 0 0 .87-.31 1.19 1.19 0 0 0 .3-.85z"/><path d="m201.59 100.71v-3.11a2.15 2.15 0 0 0 0-.45 1.12 1.12 0 0 0 -.13-.39.65.65 0 0 0 -.26-.26.76.76 0 0 0 -.41-.1.87.87 0 0 0 -.44.1.83.83 0 0 0 -.32.27 1.42 1.42 0 0 0 -.19.39 1.84 1.84 0 0 0 -.06.47v3.08h-1.89v-5.71h1.82v.79a2.11 2.11 0 0 1 .27-.36 1.72 1.72 0 0 1 .39-.31 2.39 2.39 0 0 1 .49-.2 2 2 0 0 1 .56-.08 2.21 2.21 0 0 1 1 .2 1.92 1.92 0 0 1 .65.54 2 2 0 0 1 .35.74 3.61 3.61 0 0 1 .11.85v3.52z"/><path d="m208.83 96.86a1.1 1.1 0 0 0 -.43-.33 1.27 1.27 0 0 0 -.56-.13 1.19 1.19 0 0 0 -.54.12 1.3 1.3 0 0 0 -.41.32 1.37 1.37 0 0 0 -.27.47 1.47 1.47 0 0 0 -.1.56 1.77 1.77 0 0 0 .09.56 1.33 1.33 0 0 0 .27.46 1.3 1.3 0 0 0 1 .43 1.55 1.55 0 0 0 .56-.11 1.09 1.09 0 0 0 .46-.32l1 1.27a2.52 2.52 0 0 1 -.92.54 3.58 3.58 0 0 1 -1.19.2 3.7 3.7 0 0 1 -1.26-.21 2.92 2.92 0 0 1 -1-.6 2.66 2.66 0 0 1 -.68-1 3.3 3.3 0 0 1 0-2.52 2.75 2.75 0 0 1 .68-1 2.92 2.92 0 0 1 1-.6 3.69 3.69 0 0 1 1.25-.21 4.07 4.07 0 0 1 .61 0 4 4 0 0 1 .59.16 2.38 2.38 0 0 1 .51.24 2.2 2.2 0 0 1 .41.31z"/><path d="m216.3 97.93v.23a1.5 1.5 0 0 1 0 .22h-4.12a.91.91 0 0 0 .14.43 1.12 1.12 0 0 0 .31.34 1.3 1.3 0 0 0 .42.22 1.36 1.36 0 0 0 .49.08 1.57 1.57 0 0 0 .75-.16 1.32 1.32 0 0 0 .5-.43l1.31.82a2.65 2.65 0 0 1 -1.06.9 3.51 3.51 0 0 1 -1.53.32 3.74 3.74 0 0 1 -1.21-.2 3 3 0 0 1 -1-.59 2.68 2.68 0 0 1 -.67-.94 3 3 0 0 1 -.25-1.28 3.15 3.15 0 0 1 .24-1.26 3 3 0 0 1 .65-1 3.06 3.06 0 0 1 1-.61 3.38 3.38 0 0 1 1.21-.21 3.06 3.06 0 0 1 1.15.21 2.56 2.56 0 0 1 .91.61 2.85 2.85 0 0 1 .58 1 3.55 3.55 0 0 1 .18 1.3zm-1.73-.72a1.1 1.1 0 0 0 -.28-.76 1 1 0 0 0 -.84-.32 1.59 1.59 0 0 0 -.5.08 1.22 1.22 0 0 0 -.4.24 1.06 1.06 0 0 0 -.28.35.87.87 0 0 0 -.11.41z"/><path d="m265.82 130v34.14c0 3.78-2.46 6.86-5.48 6.86h-40.71c-3 0-5.46-3.08-5.46-6.86v-34.14c0-3.78 2.44-6.86 5.46-6.86h40.71c3.02.01 5.48 3.09 5.48 6.86z"/></g><path d="m260.34 172h-40.71c-3.56 0-6.46-3.52-6.46-7.86v-34.14c0-4.34 2.9-7.86 6.46-7.86h40.71c3.57 0 6.48 3.52 6.48 7.86v34.14c0 4.35-2.91 7.86-6.48 7.86zm-40.71-47.86c-2.46 0-4.46 2.63-4.46 5.86v34.14c0 3.23 2 5.86 4.46 5.86h40.71c2.47 0 4.48-2.63 4.48-5.86v-34.14c0-3.23-2-5.86-4.48-5.86z" fill="#093f68"/><path d="m233.01 143.96.03-.03-.16-4-5.43-3.23-4.02 4.02 3.19 5.46 4 .16 9.5 9.74 2.66-2.66z" fill="#70cc40"/><path d="m240.12 157.08a1 1 0 0 1 -.71-.3l-9.22-9.45-3.6-.15a1 1 0 0 1 -.82-.5l-3.19-5.45a1 1 0 0 1 .15-1.21l4-4a1 1 0 0 1 1.22-.15l5.42 3.23a1 1 0 0 1 .49.81l.15 3.67 9.44 9.15a1 1 0 0 1 .31.71 1 1 0 0 1 -.29.71l-2.66 2.66a1 1 0 0 1 -.69.27zm-12.91-11.88 3.45.14a1 1 0 0 1 .68.31l8.79 9 1.22-1.22-9-8.76a1 1 0 0 1 -.35-.67 1.25 1.25 0 0 1 0-.21l-.13-3.24-4.26-2.55-2.93 2.92z" fill="#093f68"/><rect fill="#70cc40" height="13.49" rx="1.88" transform="matrix(.70710678 -.70710678 .70710678 .70710678 -40.49 220.34)" width="7.29" x="242.08" y="152.3"/><path d="m247.92 166.62a2.86 2.86 0 0 1 -2-.85l-6.92-6.88a2.89 2.89 0 0 1 0-4.07l2.49-2.5a2.9 2.9 0 0 1 4.08 0l6.88 6.89a2.89 2.89 0 0 1 0 4.07l-2.45 2.49a2.86 2.86 0 0 1 -2.08.85zm-4.39-13.14a.89.89 0 0 0 -.62.26l-2.49 2.49a.88.88 0 0 0 0 1.25l6.88 6.88a.88.88 0 0 0 1.24 0l2.5-2.49a.89.89 0 0 0 0-1.25l-6.88-6.88a.91.91 0 0 0 -.63-.26z" fill="#093f68"/><path d="m254.27 148.3a7.75 7.75 0 0 0 1.56-8.77l-4.09 4.09-3.31-.29-.79-3.81 4-4a7.78 7.78 0 0 0 -10.47 8.74l-13.56 13.74a4.35 4.35 0 0 0 6.15 6.14l13.52-13.73a7.77 7.77 0 0 0 6.99-2.11zm-24.5 13.7a1.92 1.92 0 1 1 2.71 0 1.93 1.93 0 0 1 -2.71 0z" fill="#ffbc0e"/><path d="m230.68 166.44a5.34 5.34 0 0 1 -3.77-9.12l13.16-13.32a8.78 8.78 0 0 1 11.9-9.33 1 1 0 0 1 .61.72 1 1 0 0 1 -.27.92l-3.58 3.58.53 2.55 2.1.18 3.77-3.76a1 1 0 0 1 .88-.28 1 1 0 0 1 .73.57 8.8 8.8 0 0 1 -1.74 9.85 8.75 8.75 0 0 1 -7.35 2.5l-13.16 13.36a5.34 5.34 0 0 1 -3.81 1.58zm18.1-30.44a6.77 6.77 0 0 0 -6.66 8.08 1 1 0 0 1 -.27.89l-13.52 13.73a3.34 3.34 0 1 0 4.72 4.73l13.52-13.72a1 1 0 0 1 .9-.28 6.81 6.81 0 0 0 6.1-1.86 6.83 6.83 0 0 0 1.83-6.22l-3 3a1 1 0 0 1 -.8.29l-3.3-.29a1 1 0 0 1 -.89-.79l-.8-3.82a1 1 0 0 1 .28-.91l2.73-2.73c-.25-.05-.55-.1-.84-.1zm-17.65 27.54a2.91 2.91 0 0 1 -2.06-5 3 3 0 0 1 4.12 0 2.92 2.92 0 0 1 0 4.12 3 3 0 0 1 -2.06.91zm0-3.83a.91.91 0 0 0 -.65.27.91.91 0 0 0 1.29 1.29.91.91 0 0 0 0-1.29.91.91 0 0 0 -.64-.24z" fill="#093f68"/><path d="m265.82 131h-51.65a1 1 0 1 1 0-2h51.65a1 1 0 0 1 0 2z" fill="#093f68"/></svg>